<svg xmlns="http://www.w3.org/2000/svg" viewBox="0 0 744.09 1052.4"><g transform="translate(38.837 4.825)"><rect width="414.93" height="305.26" x="125.74" y="334.26" ry="38.809" style="fill:#fff"/><rect width="402.11" height="290" x="131.91" y="341.29" ry="36.869" style="fill:#000"/><rect width="365.58" height="227.74" x="149.54" y="358.34" ry="18.119" style="stroke:#4d4d4d;stroke-width:.91395;fill:#fff"/><path d="M350.98 560.09c2.838 0 5.138 2.157 5.138 4.817s-2.3 4.816-5.138 4.816-5.138-2.156-5.138-4.816c0-2.574 2.158-4.693 4.9-4.812" style="fill:#fff" transform="matrix(1.7788 0 0 1.8974 -291.33 -463.24)"/><path d="M302.04 646.36a7.484 7.484 0 0 0-7.483 7.483v32.674H266.74c-5.012 0-9.025 4.07-9.025 9.082v3.827a8.99 8.99 0 0 0 9.025 9.026h132.07a8.99 8.99 0 0 0 9.025-9.026V695.6c0-5.012-4.013-9.082-9.025-9.082h-27.475v-32.674c0-4.132-3.293-7.483-7.426-7.483h-61.863z" style="fill:#000"/></g></svg>